<svg width="132" height="132" viewBox="0 0 132 132" fill="none" xmlns="http://www.w3.org/2000/svg">
<rect width="132" height="132" fill="white"/>
<g clip-path="url(#clip0_1_14)">
<mask id="path-1-inside-1_1_14" fill="white">
<path d="M35.0625 -10.3125C35.0625 -27.3988 48.9137 -41.25 66 -41.25V-41.25C83.0863 -41.25 96.9375 -27.3988 96.9375 -10.3125V76.3125C96.9375 93.3988 83.0863 107.25 66 107.25V107.25C48.9137 107.25 35.0625 93.3988 35.0625 76.3125V-10.3125Z"/>
</mask>
<path d="M35.0625 -41.25H96.9375H35.0625ZM113.438 76.3125C113.438 102.512 92.199 123.75 66 123.75C39.801 123.75 18.5625 102.512 18.5625 76.3125H51.5625C51.5625 84.2861 58.0264 90.75 66 90.75C73.9736 90.75 80.4375 84.2861 80.4375 76.3125H113.438ZM66 123.75C39.801 123.75 18.5625 102.512 18.5625 76.3125V6.1875C18.5625 -20.0115 39.801 -41.25 66 -41.25C58.0264 -41.25 51.5625 -27.3988 51.5625 -10.3125V76.3125C51.5625 84.2861 58.0264 90.75 66 90.75V123.75ZM66 -41.25C92.199 -41.25 113.438 -20.0115 113.438 6.1875V76.3125C113.438 102.512 92.199 123.75 66 123.75V90.75C73.9736 90.75 80.4375 84.2861 80.4375 76.3125V-10.3125C80.4375 -27.3988 73.9736 -41.25 66 -41.25Z" fill="#2E3E4C" mask="url(#path-1-inside-1_1_14)"/>
<circle cx="68.0625" cy="66" r="8.25" fill="#2E3E4C"/>
</g>
<path d="M51.5618 33C51.5618 37.5563 47.8682 41.25 43.3119 41.25C38.7556 41.25 35.062 37.5563 35.062 33C35.062 28.4437 38.7556 24.75 43.3119 24.75C47.8682 24.75 51.5618 28.4437 51.5618 33Z" fill="#2E3E4C"/>
<ellipse cx="88.6874" cy="33" rx="8.24991" ry="8.25" fill="#2E3E4C"/>
<line x1="96.9375" y1="66" x2="68.0625" y2="66" stroke="#2E3E4C" stroke-width="16.5"/>
<line x1="96.9375" y1="55.6875" x2="80.4375" y2="55.6875" stroke="white" stroke-width="4.125"/>
<defs>
<clipPath id="clip0_1_14">
<rect width="70.125" height="74.25" fill="white" transform="translate(30.9375 33)"/>
</clipPath>
</defs>
</svg>
